REM DIRINDEX 1\4,1\2\5,1\2\6,1\3\7,1\3\8
REM DIRNAME folder01,folder02,folder03,folder04,folder05,folder06,folder07,folder08
TITLE ""
FILE "026_Day13_Check3_Sentences.mp3" MP3
  TRACK 01 AUDIO
    TITLE "0:"
    INDEX 01 00:00:00
  TRACK 02 AUDIO
    TITLE "4:cjc124_0826"
    INDEX 01 00:00:25
  TRACK 03 AUDIO
    TITLE "0:"
    INDEX 01 00:01:54
  TRACK 04 AUDIO
    TITLE "7:cjc124_0827"
    INDEX 01 00:02:22
  TRACK 05 AUDIO
    TITLE "0:"
    INDEX 01 00:05:18
  TRACK 06 AUDIO
    TITLE "8:cjc124_0828"
    INDEX 01 00:05:36
  TRACK 07 AUDIO
    TITLE "0:"
    INDEX 01 00:08:09
  TRACK 08 AUDIO
    TITLE "7:cjc124_0829"
    INDEX 01 00:08:46
  TRACK 09 AUDIO
    TITLE "0:"
    INDEX 01 00:10:35
  TRACK 10 AUDIO
    TITLE "8:cjc124_0830"
    INDEX 01 00:10:51
  TRACK 11 AUDIO
    TITLE "0:"
    INDEX 01 00:13:06
  TRACK 12 AUDIO
    TITLE "7:cjc124_0831"
    INDEX 01 00:13:43
  TRACK 13 AUDIO
    TITLE "0:"
    INDEX 01 00:15:54
  TRACK 14 AUDIO
    TITLE "8:cjc124_0832"
    INDEX 01 00:16:02
  TRACK 15 AUDIO
    TITLE "0:"
    INDEX 01 00:18:33
  TRACK 16 AUDIO
    TITLE "7:cjc124_0833"
    INDEX 01 00:18:72
  TRACK 17 AUDIO
    TITLE "0:"
    INDEX 01 00:21:27
  TRACK 18 AUDIO
    TITLE "8:cjc124_0834"
    INDEX 01 00:21:45
  TRACK 19 AUDIO
    TITLE "0:"
    INDEX 01 00:23:22
  TRACK 20 AUDIO
    TITLE "7:cjc124_0835"
    INDEX 01 00:23:59
  TRACK 21 AUDIO
    TITLE "0:"
    INDEX 01 00:26:15
  TRACK 22 AUDIO
    TITLE "8:cjc124_0836"
    INDEX 01 00:26:28
  TRACK 23 AUDIO
    TITLE "0:"
    INDEX 01 00:28:66
  TRACK 24 AUDIO
    TITLE "7:cjc124_0837"
    INDEX 01 00:29:29
  TRACK 25 AUDIO
    TITLE "0:"
    INDEX 01 00:31:47
  TRACK 26 AUDIO
    TITLE "8:cjc124_0838"
    INDEX 01 00:31:69
  TRACK 27 AUDIO
    TITLE "0:"
    INDEX 01 00:34:63
  TRACK 28 AUDIO
    TITLE "7:cjc124_0839"
    INDEX 01 00:35:27
  TRACK 29 AUDIO
    TITLE "0:"
    INDEX 01 00:37:63
  TRACK 30 AUDIO
    TITLE "8:cjc124_0840"
    INDEX 01 00:38:04
  TRACK 31 AUDIO
    TITLE "0:"
    INDEX 01 00:40:28
  TRACK 32 AUDIO
    TITLE "7:cjc124_0841"
    INDEX 01 00:40:66
  TRACK 33 AUDIO
    TITLE "0:"
    INDEX 01 00:45:00
  TRACK 34 AUDIO
    TITLE "8:cjc124_0842"
    INDEX 01 00:45:14
  TRACK 35 AUDIO
    TITLE "0:"
    INDEX 01 00:49:53
  TRACK 36 AUDIO
    TITLE "7:cjc124_0843"
    INDEX 01 00:50:15
  TRACK 37 AUDIO
    TITLE "0:"
    INDEX 01 00:52:30
  TRACK 38 AUDIO
    TITLE "8:cjc124_0844"
    INDEX 01 00:52:47
  TRACK 39 AUDIO
    TITLE "0:"
    INDEX 01 00:54:15
  TRACK 40 AUDIO
    TITLE "7:cjc124_0845"
    INDEX 01 00:54:52
  TRACK 41 AUDIO
    TITLE "0:"
    INDEX 01 00:58:15
  TRACK 42 AUDIO
    TITLE "8:cjc124_0846"
    INDEX 01 00:58:34
  TRACK 43 AUDIO
    TITLE "0:"
    INDEX 01 01:01:44
  TRACK 44 AUDIO
    TITLE "7:cjc124_0847"
    INDEX 01 01:02:08
  TRACK 45 AUDIO
    TITLE "0:"
    INDEX 01 01:05:40
  TRACK 46 AUDIO
    TITLE "8:cjc124_0848"
    INDEX 01 01:05:68
  TRACK 47 AUDIO
    TITLE "0:"
    INDEX 01 01:09:59
  TRACK 48 AUDIO
    TITLE "7:cjc124_0849"
    INDEX 01 01:10:20
  TRACK 49 AUDIO
    TITLE "0:"
    INDEX 01 01:14:21
  TRACK 50 AUDIO
    TITLE "8:cjc124_0850"
    INDEX 01 01:14:41
  TRACK 51 AUDIO
    TITLE "0:"
    INDEX 01 01:17:63
  TRACK 52 AUDIO
    TITLE "7:cjc124_0851"
    INDEX 01 01:18:25
  TRACK 53 AUDIO
    TITLE "0:"
    INDEX 01 01:21:45
  TRACK 54 AUDIO
    TITLE "8:cjc124_0852"
    INDEX 01 01:21:61
  TRACK 55 AUDIO
    TITLE "0:"
    INDEX 01 01:24:71
  TRACK 56 AUDIO
    TITLE "7:cjc124_0853"
    INDEX 01 01:25:33
  TRACK 57 AUDIO
    TITLE "0:"
    INDEX 01 01:30:48
  TRACK 58 AUDIO
    TITLE "8:cjc124_0854"
    INDEX 01 01:30:64
  TRACK 59 AUDIO
    TITLE "0:"
    INDEX 01 01:36:29
  TRACK 60 AUDIO
    TITLE "7:cjc124_0855"
    INDEX 01 01:36:68
  TRACK 61 AUDIO
    TITLE "0:"
    INDEX 01 01:39:39
  TRACK 62 AUDIO
    TITLE "8:cjc124_0856"
    INDEX 01 01:39:57
  TRACK 63 AUDIO
    TITLE "0:"
    INDEX 01 01:42:24
  TRACK 64 AUDIO
    TITLE "7:cjc124_0857"
    INDEX 01 01:42:59
  TRACK 65 AUDIO
    TITLE "0:"
    INDEX 01 01:45:57
  TRACK 66 AUDIO
    TITLE "8:cjc124_0858"
    INDEX 01 01:45:71
  TRACK 67 AUDIO
    TITLE "0:"
    INDEX 01 01:48:67
